<?xml version="1.0" encoding="utf-8"?>
<!-- Generator: Adobe Illustrator 27.0.0, SVG Export Plug-In . SVG Version: 6.00 Build 0)  -->
<svg version="1.1" id="レイヤー_2_1_" xmlns="http://www.w3.org/2000/svg" xmlns:xlink="http://www.w3.org/1999/xlink" x="0px"
	 y="0px" viewBox="0 0 153.5 56" style="enable-background:new 0 0 153.5 56;" xml:space="preserve">
<style type="text/css">
	.st0{fill:#294599;}
	.st1{fill:#FFFFFF;}
	.st2{fill:#FDFEFF;}
	.st3{fill:#ED2C2D;}
</style>
<rect id="長方形_1" x="0" class="st0" width="153.5" height="56"/>
<g>
	<g id="グループ_1" transform="translate(23.644 14.684)">
		<path id="パス_1" class="st1" d="M0,26.3V0h12.1c2.1-0.1,4.2,0.6,5.9,1.9c0.8,0.6,1.4,1.4,1.8,2.3c0.5,1,0.7,2.1,0.7,3.2
			c0,1.7-0.6,3.4-1.6,4.8c0.6,0.6,1.1,1.3,1.6,2.1c0.8,1.3,1.2,2.7,1.4,4.1c0,2.2-0.9,4.4-2.6,5.9c-1.1,0.9-2.5,2-8.5,2H0z
			 M10.6,10.5c0.7-0.1,1.3-0.3,1.9-0.7c0.5-0.5,1-1,1-2.8c0-1.6-1.9-2.6-2.7-2.6H6.9v6.1H10.6L10.6,10.5z M11.2,21.9
			c1.9,0,3.4-1.6,3.4-3.5c0-1.8-1.4-3.3-3.2-3.4H7v6.9H11.2L11.2,21.9z"/>
		<path id="パス_2" class="st1" d="M39.1,0h6.7v16c-0.2,5.8-5,10.5-10.9,10.3l0,0c-6.2,0.3-11.4-4.5-11.7-10.7c0-0.1,0-0.2,0-0.3
			V0h6.9v16.7c0,2.7,2.2,4.8,4.9,4.8h0.1c3.2,0,4-3.9,4-4.8V0z"/>
		<path id="パス_3" class="st2" d="M64.8,26.3L53.6,9.5h1.8v16.8h-6.7V0h6.7l10.4,15.8h-1.3l0-15.8h6.8v26.3H64.8z"/>
		<path id="パス_4" class="st1" d="M89.9,26.2c0-0.4-0.1-0.8-0.1-1.1l-0.4-5.8c0-0.8-0.3-1.5-0.8-2.1c-0.6-0.6-1.4-0.9-2.2-0.8
			h-5.6v9.8h-6.6V0h12.2c2.5-0.1,5.1,0.6,7.1,2.1c1.8,1.4,2.8,3.5,2.8,5.8c0,1.4-0.3,2.9-0.9,4.2c-0.3,0.8-0.9,1.6-1.6,2.2
			c0.5,0.5,1,1,1.3,1.6c0.2,0.5,0.4,1,0.6,1.5c0.1,0.6,0.2,1.1,0.2,1.7c0,0,0.2,4.9,0.4,5.6c0.1,0.5,0.3,1,0.7,1.5L89.9,26.2
			L89.9,26.2z"/>
		<path id="パス_5" class="st1" d="M99.7,26.3V0h6.7v26.3H99.7z"/>
	</g>
	<circle id="楕円形_1" class="st0" cx="109.6" cy="22.9" r="5.6"/>
	<ellipse id="楕円形_2" class="st1" cx="109.6" cy="22.9" rx="4.3" ry="4.2"/>
	<circle id="楕円形_3" class="st3" cx="109.6" cy="22.9" r="3.3"/>
</g>
</svg>
